<?xml version="1.0" standalone="no"?>
<!DOCTYPE svg PUBLIC "-//W3C//DTD SVG 1.1//EN" "http://www.w3.org/Graphics/SVG/1.1/DTD/svg11.dtd" >
<!--
2013-9-30: Created.
-->
<svg>
<metadata>
Created by iconfont
</metadata>
<defs>

<font id="iconfont" horiz-adv-x="1024" >
  <font-face
    font-family="iconfont"
    font-weight="500"
    font-stretch="normal"
    units-per-em="1024"
    ascent="896"
    descent="-128"
  />
    <missing-glyph />
    
    <glyph glyph-name="x" unicode="x" horiz-adv-x="1001"
d="M281 543q-27 -1 -53 -1h-83q-18 0 -36.5 -6t-32.5 -18.5t-23 -32t-9 -45.5v-76h912v41q0 16 -0.5 30t-0.5 18q0 13 -5 29t-17 29.5t-31.5 22.5t-49.5 9h-133v-97h-438v97zM955 310v-52q0 -23 0.5 -52t0.5 -58t-10.5 -47.5t-26 -30t-33 -16t-31.5 -4.5q-14 -1 -29.5 -0.5
t-29.5 0.5h-32l-45 128h-439l-44 -128h-29h-34q-20 0 -45 1q-25 0 -41 9.5t-25.5 23t-13.5 29.5t-4 30v167h911zM163 247q-12 0 -21 -8.5t-9 -21.5t9 -21.5t21 -8.5q13 0 22 8.5t9 21.5t-9 21.5t-22 8.5zM316 123q-8 -26 -14 -48q-5 -19 -10.5 -37t-7.5 -25t-3 -15t1 -14.5
t9.5 -10.5t21.5 -4h37h67h81h80h64h36q23 0 34 12t2 38q-5 13 -9.5 30.5t-9.5 34.5q-5 19 -11 39h-368zM336 498v228q0 11 2.5 23t10 21.5t20.5 15.5t34 6h188q31 0 51.5 -14.5t20.5 -52.5v-227h-327z" />
    

    
    <glyph glyph-name="huiyuanzhongxin" unicode="&#58915;" d="M512 833.7408c-158.5152 0-286.72-128.2048-286.72-286.72s128.2048-286.72 286.72-286.72 286.72 128.2048 286.72 286.72-128.2048 286.72-286.72 286.72z m0-512c-124.5184 0-225.28 100.7616-225.28 225.28s100.7616 225.28 225.28 225.28 225.28-100.7616 225.28-225.28-100.7616-225.28-225.28-225.28zM512 240.64c203.1616 0 370.2784-122.88 387.4816-279.7568 1.6384-15.5648 14.7456-27.4432 30.3104-27.4432 18.432 0 32.768 15.9744 30.72 33.9968-20.8896 187.5968-213.8112 334.6432-448.512 334.6432S84.3776 155.0336 63.488-32.5632c-2.048-18.0224 12.288-33.9968 30.72-33.9968 15.5648 0 28.672 11.8784 30.3104 27.4432 17.6128 156.4672 184.32 279.7568 387.4816 279.7568z"  horiz-adv-x="1024" />

    
    <glyph glyph-name="yinhangqia" unicode="&#58918;" d="M839.68 772.7104H184.32c-67.9936 0-122.88-54.8864-122.88-122.88v-532.48c0-67.9936 54.8864-122.88 122.88-122.88h655.36c67.9936 0 122.88 54.8864 122.88 122.88v297.3696c0 16.7936-13.5168 30.3104-30.3104 30.3104-17.2032 0-31.1296-13.9264-31.1296-31.1296V117.76c0-33.9968-27.8528-61.44-61.44-61.44H184.32c-33.9968 0-61.44 27.8528-61.44 61.44V506.4704h839.68v143.36c0 67.584-54.8864 122.88-122.88 122.88zM122.88 598.6304V650.24c0 33.9968 27.8528 61.44 61.44 61.44h655.36c33.9968 0 61.44-27.8528 61.44-61.44v-51.6096H122.88zM215.04 445.0304c-16.7936 0-30.72-13.9264-30.72-30.72s13.9264-30.72 30.72-30.72h225.28c16.7936 0 30.72 13.9264 30.72 30.72s-13.9264 30.72-30.72 30.72h-225.28z"  horiz-adv-x="1024" />

    
    <glyph glyph-name="home" unicode="&#58922;" d="M942.08 416.768l-408.3712 408.3712c-6.144 6.144-13.9264 9.0112-21.7088 9.0112s-15.5648-2.8672-21.7088-9.0112L81.92 416.768c-11.8784-11.8784-11.8784-31.5392 0-43.4176 11.8784-11.8784 31.5392-11.8784 43.4176 0L512 760.0128l386.6624-386.6624c11.8784-11.8784 31.5392-11.8784 43.4176 0 11.8784 12.288 11.8784 31.5392 0 43.4176zM809.3696 302.8992c-17.2032 0-31.1296-13.9264-31.1296-31.1296V56.32c0-33.9968-27.8528-61.44-61.44-61.44H307.2c-33.9968 0-61.44 27.8528-61.44 61.44v215.8592c0 16.7936-13.9264 30.72-30.72 30.72s-30.72-13.9264-30.72-30.72V56.32c0-67.9936 54.8864-122.88 122.88-122.88h409.6c67.9936 0 122.88 54.8864 122.88 122.88v216.2688c0 16.7936-13.5168 30.3104-30.3104 30.3104z"  horiz-adv-x="1024" />

    
    <glyph glyph-name="mima" unicode="&#58923;" d="M839.68 424.5504H307.2v143.36c0 112.64 92.16 204.8 204.8 204.8s204.8-92.16 204.8-204.8v-50.7904c0-17.2032 13.9264-31.1296 31.1296-31.1296 16.7936 0 30.3104 13.5168 30.3104 30.3104V567.9104c0 146.6368-119.6032 266.24-266.24 266.24-146.2272 0-266.24-120.0128-266.24-266.24v-143.36H184.32c-67.584 0-122.88-55.296-122.88-122.88v-245.76c0-67.584 55.296-122.88 122.88-122.88h655.36c67.584 0 122.88 55.296 122.88 122.88v245.76c0 67.584-55.296 122.88-122.88 122.88z m61.44-368.64c0-33.9968-27.8528-61.44-61.44-61.44H184.32c-33.9968 0-61.44 27.8528-61.44 61.44v245.76c0 33.9968 27.8528 61.44 61.44 61.44h655.36c33.9968 0 61.44-27.8528 61.44-61.44v-245.76zM512 175.104m-61.44 0a61.44 61.44 0 1 1 122.88 0 61.44 61.44 0 1 1-122.88 0Z"  horiz-adv-x="1024" />

    
    <glyph glyph-name="jtleft" unicode="&#58927;" d="M512 834.15c-249.037 0-450.56-201.523-450.56-450.56s201.523-450.56 450.56-450.56 450.56 201.523 450.56 450.56-201.523 450.56-450.56 450.56zM512-5.53c-215.040 0-389.12 174.080-389.12 389.12s174.080 389.12 389.12 389.12 389.12-174.080 389.12-389.12-174.080-389.12-389.12-389.12zM422.673 383.59l201.114 201.114c11.878 11.878 11.878 31.539 0 43.418s-31.539 11.878-43.418 0l-221.184-221.184c-0.41-0.41-1.229-0.819-1.638-1.229-11.059-11.059-11.878-29.082-2.048-40.96 0.819-0.819 1.229-1.638 2.048-2.458l222.413-222.413c11.878-11.878 31.539-11.878 43.418 0s11.878 31.539 0 43.418l-200.704 200.294z"  horiz-adv-x="1024" />

    
    <glyph glyph-name="jtright" unicode="&#58928;" d="M512 834.15c-249.037 0-450.56-201.523-450.56-450.56s201.523-450.56 450.56-450.56 450.56 201.523 450.56 450.56-201.523 450.56-450.56 450.56zM512-5.53c-215.040 0-389.12 174.080-389.12 389.12s174.080 389.12 389.12 389.12 389.12-174.080 389.12-389.12-174.080-389.12-389.12-389.12zM621.807 384l-201.114-201.114c-11.878-11.878-11.878-31.539 0-43.418s31.539-11.878 43.418 0l221.184 221.184c0.41 0.41 1.229 0.819 1.638 1.229 11.059 11.059 11.878 29.082 2.048 40.96-0.819 0.819-1.229 1.638-2.048 2.458l-222.413 222.413c-11.878 11.878-31.539 11.878-43.418 0s-11.878-31.539 0-43.418l200.704-200.294z"  horiz-adv-x="1024" />

    
    <glyph glyph-name="xinxizhongxin" unicode="&#58930;" d="M309.248 384m-61.44 0a61.44 61.44 0 1 1 122.88 0 61.44 61.44 0 1 1-122.88 0ZM512 384m-61.44 0a61.44 61.44 0 1 1 122.88 0 61.44 61.44 0 1 1-122.88 0ZM714.752 384m-61.44 0a61.44 61.44 0 1 1 122.88 0 61.44 61.44 0 1 1-122.88 0ZM933.0688 2.6624l-31.9488 181.0432c-1.2288 8.192-0.4096 16.384 2.8672 23.7568 24.1664 53.248 37.6832 112.2304 37.6832 174.4896 1.6384 235.9296-190.464 430.4896-426.3936 432.128C275.2512 815.7184 80.2816 620.7488 81.92 380.7232c1.6384-235.9296 195.7888-427.6224 431.7184-426.8032 61.8496 0.4096 120.832 13.5168 174.08 37.2736 7.7824 3.6864 16.384 4.5056 24.9856 2.8672l165.0688-29.0816h0.4096l30.3104-5.3248c16.384-2.8672 30.72 11.4688 27.8528 28.2624l-3.2768 14.7456zM704.512 58.368c-9.4208 1.6384-19.2512 0-27.8528-4.096l-2.4576-1.2288c-3.6864-1.6384-7.3728-3.6864-11.0592-5.3248l-2.4576-1.2288c-4.5056-2.048-9.0112-3.6864-13.5168-5.7344-0.4096 0-0.8192-0.4096-1.2288-0.4096-4.096-1.6384-8.192-2.8672-12.288-4.5056-1.2288-0.4096-2.048-0.8192-3.2768-1.2288-4.5056-1.6384-8.6016-2.8672-13.1072-4.096h-0.4096c-4.5056-1.2288-9.4208-2.4576-14.336-3.6864-1.2288-0.4096-2.048-0.4096-3.2768-0.8192-3.6864-0.8192-7.7824-1.6384-11.4688-2.4576-1.2288-0.4096-2.048-0.4096-3.2768-0.8192-4.9152-0.8192-9.8304-1.6384-14.336-2.4576-29.0816-4.5056-58.9824-5.7344-89.7024-2.8672-184.7296 15.9744-330.1376 169.5744-336.2816 354.7136-6.9632 213.8112 168.3456 388.7104 382.1568 380.928 185.1392-6.9632 337.92-152.3712 353.4848-336.6912 2.4576-30.72 1.2288-60.6208-3.2768-89.2928-0.8192-4.9152-1.6384-9.8304-2.8672-14.7456 0-0.8192-0.4096-1.6384-0.4096-2.4576-0.8192-4.096-1.6384-8.192-2.8672-12.6976-0.4096-0.8192-0.4096-1.6384-0.8192-2.8672-1.2288-4.9152-2.4576-9.4208-4.096-14.336 0-0.4096 0-0.4096-0.4096-0.8192-1.2288-4.5056-2.8672-8.6016-4.096-13.1072-0.4096-1.2288-0.8192-2.048-1.2288-3.2768-1.6384-4.096-2.8672-8.192-4.5056-12.288 0-0.4096-0.4096-0.8192-0.4096-1.2288-1.6384-4.5056-3.6864-9.0112-5.7344-13.5168-0.4096-0.8192-0.8192-1.6384-1.2288-2.8672-1.6384-3.6864-3.2768-6.9632-4.9152-10.6496-0.4096-0.8192-0.8192-2.048-1.2288-2.8672-4.096-8.6016-5.7344-18.0224-4.096-27.4432l28.672-161.792-161.792 28.2624z"  horiz-adv-x="1024" />

    
    <glyph glyph-name="goucaidating" unicode="&#58932;" d="M512 834.56C262.9632 834.56 61.44 632.6272 61.44 384s201.5232-450.56 450.56-450.56 450.56 201.5232 450.56 450.56S761.0368 834.56 512 834.56z m0-839.68c-215.04 0-389.12 174.08-389.12 389.12s174.08 389.12 389.12 389.12 389.12-174.08 389.12-389.12-174.08-389.12-389.12-389.12zM606.208 429.4656c29.9008 26.2144 49.152 64.7168 49.152 107.7248 0 79.0528-64.3072 143.36-143.36 143.36s-143.36-64.3072-143.36-143.36c0-43.008 18.8416-81.5104 49.152-107.7248-54.0672-32.3584-90.112-90.9312-90.112-158.5152 0-101.9904 82.3296-184.32 184.32-184.32s184.32 82.3296 184.32 184.32c0 67.584-36.0448 126.5664-90.112 158.5152z m-94.208 190.0544c45.056 0 81.92-36.864 81.92-81.92s-36.864-81.92-81.92-81.92-81.92 36.864-81.92 81.92 36.864 81.92 81.92 81.92z m0-471.04c-67.9936 0-122.88 54.8864-122.88 122.88s54.8864 122.88 122.88 122.88 122.88-54.8864 122.88-122.88-54.8864-122.88-122.88-122.88z"  horiz-adv-x="1024" />

    
    <glyph glyph-name="sousuo" unicode="&#58940;" d="M953.5488-14.1312l-242.0736 242.0736-43.8272 43.8272c-56.5248-68.8128-142.1312-113.0496-238.3872-112.64-165.888-0.4096-303.104 134.3488-306.3808 300.6464-3.2768 174.08 138.4448 315.8016 312.1152 312.9344 161.792-2.4576 295.3216-132.3008 301.8752-294.0928 2.048-47.9232-6.9632-93.3888-24.576-134.3488-5.7344-12.6976-2.8672-27.8528 6.9632-37.6832 14.336-14.336 38.912-9.8304 47.104 8.6016 21.7088 47.9232 33.1776 101.5808 31.9488 158.1056-4.096 197.0176-164.6592 357.1712-361.6768 360.8576-209.3056 4.096-379.6992-166.2976-375.6032-375.6032 3.6864-198.656 166.7072-360.0384 365.3632-361.6768 92.16-0.8192 176.128 32.3584 241.2544 87.2448l242.0736-242.0736c11.8784-11.8784 31.5392-11.8784 43.4176 0 12.288 12.288 12.288 31.5392 0.4096 43.8272zM431.3088 677.2736c0 18.432-16.384 32.768-34.816 29.9008C288.768 692.0192 203.5712 606.8224 188.416 499.5072c-2.8672-18.8416 11.4688-35.6352 30.3104-35.6352 0 0 25.3952-3.6864 30.72 29.0816 12.6976 77.824 73.728 139.264 151.1424 152.3712 32.768 5.7344 30.72 31.9488 30.72 31.9488z"  horiz-adv-x="1024" />

    
    <glyph glyph-name="kaijiangjilu" unicode="&#58963;" d="M643.4816 814.8992c-19.6608 6.144-39.3216-8.6016-39.3216-29.0816 0-13.5168 9.0112-25.8048 22.1184-29.9008 160.9728-49.152 277.7088-200.2944 274.8416-378.4704-3.2768-209.3056-174.08-380.1088-383.3856-382.976C300.2368-8.3968 122.88 166.912 122.88 384c0 204.3904 157.696 372.3264 358.4 387.8912v-380.928c0-20.8896 16.7936-37.6832 37.6832-37.6832h287.5392c15.1552 0 29.0816 10.6496 31.5392 25.8048 3.2768 18.8416-11.8784 35.6352-30.3104 35.6352h-265.0112V833.3312c-10.24 0.8192-20.48 1.2288-30.72 1.2288C260.9152 834.56 58.1632 629.3504 61.44 377.4464c3.2768-242.4832 201.5232-440.7296 444.0064-444.0064 251.904-3.6864 457.1136 199.4752 457.1136 450.56 0 202.752-134.3488 374.784-319.0784 430.8992z"  horiz-adv-x="1024" />

    
    <glyph glyph-name="touzhujilu" unicode="&#58967;" d="M868.7616 644.9152l-44.2368-44.2368-87.6544-87.6544-45.4656-45.4656-200.704-200.704-144.5888 144.5888L287.5392 470.016c-11.8784 11.8784-31.1296 11.8784-42.5984 0-21.2992-24.1664-2.4576-41.7792 9.4208-53.248l191.6928-191.6928 1.6384-1.6384 26.2144-26.2144c9.4208-9.4208 24.576-9.4208 33.9968 0l226.9184 226.9184 45.4656 45.4656 73.728 73.728c18.0224-44.2368 27.4432-92.9792 27.0336-143.7696-2.8672-198.656-165.4784-360.448-363.7248-363.3152H237.568c-52.0192 0-94.208 42.1888-94.208 94.208v282.624c4.096 199.8848 167.5264 360.448 368.64 360.448 97.8944 0 186.7776-38.0928 253.1328-100.352 11.8784-11.4688 32.3584-12.288 43.8272-0.4096 12.288 12.288 11.8784 31.9488-0.4096 44.2368-77.824 74.1376-183.0912 119.1936-299.008 118.3744C274.0224 832.9216 81.92 634.2656 81.92 399.1552V113.664c0-77.0048 62.2592-139.264 139.264-139.264h295.7312c231.424 2.8672 421.0688 190.8736 424.7552 422.7072 2.048 91.7504-25.3952 176.9472-72.9088 247.808z"  horiz-adv-x="1024" />

    
    <glyph glyph-name="chongzhitikuan" unicode="&#58970;" d="M945.7664 505.2416c-6.5536 15.9744-24.1664 10.6496-33.9968-3.2768l-99.5328-120.832c-11.0592-13.9264-9.4208-22.528-4.5056-29.4912 5.7344-7.7824 18.432-6.9632 26.624-1.2288l64.3072 46.2848c4.096-99.5328-32.3584-212.992-125.3376-298.1888-143.7696-134.3488-373.5552-134.7584-519.3728-4.9152-27.8528 24.9856-51.6096 52.8384-70.4512 82.7392-11.0592 17.2032-31.5392 27.0336-52.4288 13.1072-17.2032-13.9264-7.7824-31.9488-1.2288-43.008 25.3952-38.0928 43.008-61.44 76.5952-92.5696 175.7184-162.6112 451.3792-157.696 622.1824 10.24 89.2928 88.4736 133.9392 204.8 133.9392 320.7168 0.4096 1.2288-2.048 83.1488-16.7936 120.4224zM216.2688 422.5024c-6.5536 8.192-20.8896 8.6016-28.2624 0.8192l-63.0784-52.4288C121.6512 498.688 172.8512 591.2576 252.7232 671.1296c138.8544 133.12 380.1088 130.2528 523.0592-4.096 24.576-23.3472 45.056-46.6944 63.488-76.1856 11.0592-17.6128 28.672-25.8048 48.7424-15.1552 19.6608 13.9264 15.1552 32.3584 8.6016 43.008-19.6608 34.4064-44.6464 64.3072-78.2336 95.8464-172.032 159.744-456.2944 155.2384-623.4112-9.8304C105.2672 617.0624 60.6208 500.736 61.0304 384c0 0 2.048-83.968 15.5648-118.3744 6.144-15.9744 24.1664-13.9264 36.864 2.048l102.8096 130.6624c6.9632 7.7824 5.3248 17.6128 0 24.1664zM683.2128 613.376c-11.8784 11.8784-31.5392 11.8784-43.4176 0l-129.8432-129.8432L379.2896 613.376c-11.8784 12.288-31.1296 12.288-43.4176 0-11.8784-11.8784-11.8784-31.5392 0-43.4176l86.4256-86.8352H376.4224c-16.7936 0-30.72-13.9264-30.72-30.72s13.9264-30.72 30.72-30.72h102.4v-86.4256h-102.4c-16.7936 0-30.72-13.9264-30.72-30.72s13.9264-30.72 30.72-30.72h102.4V162.816c0-16.7936 13.9264-30.72 30.72-30.72s30.72 13.9264 30.72 30.72v111.0016h102.4c16.7936 0 30.72 13.9264 30.72 30.72s-13.9264 30.72-30.72 30.72h-102.4v86.4256h102.4c16.7936 0 30.72 13.9264 30.72 30.72s-13.9264 30.72-30.72 30.72h-45.8752l86.4256 86.8352c11.8784 11.8784 11.8784 31.5392 0 43.4176z"  horiz-adv-x="1024" />

    
    <glyph glyph-name="youcaidan" unicode="&#58977;" d="M180.224 384m-61.44 0a61.44 61.44 0 1 1 122.88 0 61.44 61.44 0 1 1-122.88 0ZM512 384m-61.44 0a61.44 61.44 0 1 1 122.88 0 61.44 61.44 0 1 1-122.88 0ZM843.776 384m-61.44 0a61.44 61.44 0 1 1 122.88 0 61.44 61.44 0 1 1-122.88 0Z"  horiz-adv-x="1024" />

    
    <glyph glyph-name="chongzhijilu" unicode="&#58983;" d="M425.5744 585.9328H379.6992c-16.7936 0-30.72-13.9264-30.72-30.72s13.9264-30.72 30.72-30.72h102.4v-86.4256h-102.4c-16.7936 0-30.72-13.9264-30.72-30.72s13.9264-30.72 30.72-30.72h102.4v-111.0016c0-16.7936 13.9264-30.72 30.72-30.72s30.72 13.9264 30.72 30.72v111.0016h102.4c16.7936 0 30.72 13.9264 30.72 30.72s-13.9264 30.72-30.72 30.72h-102.4V524.4928h102.4c16.7936 0 30.72 13.9264 30.72 30.72s-13.9264 30.72-30.72 30.72h-45.8752l86.4256 86.8352c11.8784 11.8784 11.8784 31.5392 0 43.4176s-31.5392 11.8784-43.4176 0l-129.8432-129.8432-130.6624 129.8432c-11.8784 11.8784-31.5392 11.8784-43.4176 0-11.8784-11.8784-11.8784-31.5392 0-43.4176l86.4256-86.8352zM965.8368 401.6128c0 20.48-16.384 36.864-36.864 36.864h-88.4736V790.3232c0 16.7936-13.1072 31.5392-29.9008 31.9488-17.2032 0.4096-31.5392-13.5168-31.5392-30.72V412.672c0-19.6608 15.9744-35.6352 35.6352-35.6352h34.4064c11.0592 0 16.384-13.1072 8.6016-20.8896l-327.68-327.68c-9.4208-9.4208-24.9856-9.4208-34.4064 0L164.2496 359.424c-6.5536 6.5536-2.048 17.6128 7.3728 17.6128h39.3216c19.6608 0 35.6352 15.9744 35.6352 35.6352V791.1424c0 16.384-13.5168 31.1296-29.9008 31.1296-17.6128 0-31.5392-13.9264-31.5392-31.5392v-352.256H101.1712c-22.9376 0-41.3696-18.432-41.3696-41.3696 0 0-2.4576-17.6128 13.5168-33.5872 9.8304-10.24 24.576-24.576 24.576-24.576l371.9168-371.9168c24.1664-24.1664 63.0784-24.1664 86.8352 0l371.0976 371.0976 17.6128 18.8416c21.2992 23.3472 20.48 44.6464 20.48 44.6464z"  horiz-adv-x="1024" />

    
    <glyph glyph-name="tixianjilu" unicode="&#58984;" d="M931.4304 466.7392c0 79.0528-64.3072 143.36-143.36 143.36H255.1808c-43.4176 0.4096-78.6432 34.816-80.6912 77.824v3.6864c0 43.8272 34.4064 79.4624 77.824 81.92v0.4096h475.136c34.4064 0 39.7312 49.9712 5.7344 56.9344-15.5648 2.8672-31.1296 4.5056-47.5136 4.5056h-434.176c-29.0816-0.8192-55.7056-10.24-78.2336-25.8048-0.4096-0.4096-0.8192-0.4096-1.2288-0.8192-1.6384-1.2288-3.2768-2.4576-4.5056-3.2768-0.8192-0.4096-1.2288-0.8192-2.048-1.6384-1.6384-1.2288-2.8672-2.4576-4.5056-3.6864-0.4096-0.4096-1.2288-0.8192-1.6384-1.2288-2.048-1.6384-3.6864-3.6864-5.7344-5.3248-0.4096-0.4096-0.4096-0.8192-0.8192-0.8192l-4.5056-4.5056c-0.8192-0.8192-1.2288-1.6384-2.048-2.4576-0.8192-1.2288-2.048-2.4576-2.8672-3.2768-0.8192-0.8192-1.6384-2.048-2.048-2.8672-0.8192-1.2288-1.6384-2.048-2.4576-3.2768-0.8192-1.2288-1.6384-2.048-2.048-3.2768-0.8192-0.8192-1.2288-2.048-2.048-3.2768-1.6384-2.4576-3.2768-4.9152-4.5056-7.7824-0.4096-0.4096-0.8192-1.2288-0.8192-1.6384-0.8192-1.6384-1.6384-2.8672-2.4576-4.5056l-1.2288-2.4576c-0.8192-1.6384-1.2288-2.8672-2.048-4.5056-0.4096-0.8192-0.8192-1.6384-0.8192-2.4576-0.8192-1.6384-1.2288-3.2768-2.048-4.9152 0-0.4096-0.4096-1.2288-0.4096-1.6384-2.048-6.144-4.096-12.288-5.3248-18.432v-0.8192l-1.2288-6.144c0-0.4096 0-1.2288-0.4096-1.6384-0.4096-2.048-0.4096-4.096-0.8192-6.144v-1.2288c-0.4096-4.5056-0.8192-9.0112-0.8192-13.9264v-512c0-135.168 110.592-245.76 245.76-245.76h327.68c135.168 0 245.76 106.0864 245.76 241.2544v11.8784c0 14.336-11.4688 26.2144-26.2144 26.2144H604.16c-31.5392 0-58.9824 22.9376-62.6688 54.0672-4.5056 37.2736 24.576 68.8128 61.0304 68.8128h303.9232c13.5168 0 24.576 11.0592 24.576 24.576v95.0272h-0.4096c0.8192 4.096 0.8192 7.7824 0.8192 11.0592z m-61.0304-10.24v-58.1632h-267.0592c-67.584 0-122.88-55.296-122.88-122.88s55.296-122.88 122.88-122.88H868.352c-13.5168-88.4736-90.112-156.8768-182.272-156.8768h-327.68c-101.5808 0-184.32 83.1488-184.32 184.32V574.464c20.48-14.336 44.6464-23.3472 70.8608-25.3952h1.6384c3.2768-0.4096 6.5536-0.4096 9.4208-0.4096h531.2512c43.4176-0.8192 80.6912-34.4064 82.7392-77.824l0.4096-0.4096v-13.9264zM606.208 274.6368m-30.72 0a30.72 30.72 0 1 1 61.44 0 30.72 30.72 0 1 1-61.44 0ZM234.2912 691.2c0-16.7936 13.9264-30.72 30.72-30.72h552.96c16.7936 0 30.72 13.9264 30.72 30.72s-13.9264 30.72-30.72 30.72h-552.96c-17.2032 0-30.72-13.9264-30.72-30.72z"  horiz-adv-x="1024" />

    
    <glyph glyph-name="zijinjilu" unicode="&#58986;" d="M425.1648 438.4768H378.88c-16.7936 0-30.72-13.9264-30.72-30.72s13.9264-30.72 30.72-30.72h102.4v-86.4256h-102.4c-16.7936 0-30.72-13.9264-30.72-30.72s13.9264-30.72 30.72-30.72h102.4v-111.0016c0-16.7936 13.9264-30.72 30.72-30.72s30.72 13.9264 30.72 30.72v111.0016h102.4c16.7936 0 30.72 13.9264 30.72 30.72s-13.9264 30.72-30.72 30.72h-102.4v86.4256h102.4c16.7936 0 30.72 13.9264 30.72 30.72s-13.9264 30.72-30.72 30.72h-45.8752l86.4256 86.8352c11.8784 11.8784 11.8784 31.5392 0 43.4176s-31.5392 11.8784-43.4176 0L512 438.8864 382.1568 568.7296c-11.8784 11.8784-31.5392 11.8784-43.4176 0-11.8784-11.8784-11.8784-31.5392 0-43.4176l86.4256-86.8352zM512 670.72c16.7936 0 30.72 13.9264 30.72 30.72v102.4c0 16.7936-13.9264 30.72-30.72 30.72s-30.72-13.9264-30.72-30.72v-102.4c0-16.7936 13.9264-30.72 30.72-30.72zM725.4016 670.72c16.7936 0 30.72 13.9264 30.72 30.72v102.4c0 16.7936-13.9264 30.72-30.72 30.72s-30.72-13.9264-30.72-30.72v-102.4c0-16.7936 13.5168-30.72 30.72-30.72zM298.5984 670.72c16.7936 0 30.72 13.9264 30.72 30.72v102.4c0 16.7936-13.9264 30.72-30.72 30.72s-30.72-13.9264-30.72-30.72v-102.4c0-16.7936 13.9264-30.72 30.72-30.72zM875.3152 654.7456C857.7024 678.912 819.2 666.624 819.2 636.3136c0-6.144 2.048-11.8784 5.3248-16.7936 22.528-30.72 35.6352-68.4032 35.6352-108.9536v-329.728c0-101.9904-83.1488-185.5488-184.32-185.5488H348.16c-101.5808 0-184.32 83.5584-184.32 185.5488V510.5664c0 40.5504 13.1072 78.2336 35.2256 108.9536 3.6864 4.9152 5.7344 11.0592 5.7344 17.2032 0 29.9008-38.5024 42.5984-55.7056 18.0224C119.6032 614.1952 102.4 564.224 102.4 510.5664v-329.728c0-135.9872 110.592-247.3984 245.76-247.3984h327.68c135.168 0 245.76 111.4112 245.76 247.3984V510.5664c0 53.6576-17.2032 103.2192-46.2848 144.1792z"  horiz-adv-x="1024" />

    
    <glyph glyph-name="wenti" unicode="&#58988;" d="M512 834.56C262.9632 834.56 61.44 632.6272 61.44 384c0-249.0368 201.5232-450.56 450.56-450.56s450.56 201.5232 450.56 450.56c0 248.6272-201.5232 450.56-450.56 450.56z m0-839.68c-215.04 0-389.12 174.08-389.12 389.12s174.08 389.12 389.12 389.12 389.12-174.08 389.12-389.12-174.08-389.12-389.12-389.12zM529.6128 689.5616c-92.5696 3.6864-170.8032-61.44-188.0064-147.8656-3.6864-18.8416 10.6496-36.0448 29.9008-36.0448 14.7456 0 27.8528 10.24 30.72 24.576 11.8784 58.5728 65.536 101.9904 128.6144 97.8944 62.2592-4.096 112.2304-55.296 114.688-117.5552 2.4576-60.2112-38.5024-111.4112-94.208-124.5184-40.1408-9.8304-69.632-45.8752-69.632-88.8832v-42.1888c0-17.2032 13.9264-31.1296 31.1296-31.1296h0.4096c16.7936 0 30.3104 13.5168 30.3104 30.3104v42.5984 0.4096c0 14.336 10.24 26.624 23.7568 29.9008 82.7392 20.0704 143.7696 96.256 140.4928 186.368-4.9152 94.6176-82.7392 172.4416-178.176 176.128zM512 118.9888m-40.96 0a40.96 40.96 0 1 1 81.92 0 40.96 40.96 0 1 1-81.92 0Z"  horiz-adv-x="1024" />

    
    <glyph glyph-name="zuocaidan" unicode="&#58991;" d="M400.1792 570.7776h471.04c16.7936 0 30.72 13.9264 30.72 30.72s-13.5168 30.72-30.72 30.72h-471.04c-16.7936 0-30.72-13.9264-30.72-30.72s13.9264-30.72 30.72-30.72zM215.8592 632.2176h-61.44c-16.7936 0-30.72-13.9264-30.72-30.72s13.9264-30.72 30.72-30.72h61.44c16.7936 0 30.72 13.9264 30.72 30.72s-13.9264 30.72-30.72 30.72zM871.2192 416.3584h-471.04c-16.7936 0-30.72-13.9264-30.72-30.72s13.9264-30.72 30.72-30.72h471.04c16.7936 0 30.72 13.9264 30.72 30.72s-13.5168 30.72-30.72 30.72zM215.8592 416.3584h-61.44c-16.7936 0-30.72-13.9264-30.72-30.72s13.9264-30.72 30.72-30.72h61.44c16.7936 0 30.72 13.9264 30.72 30.72s-13.9264 30.72-30.72 30.72zM871.2192 199.68h-471.04c-16.7936 0-30.72-13.9264-30.72-30.72s13.9264-30.72 30.72-30.72h471.04c16.7936 0 30.72 13.9264 30.72 30.72s-13.5168 30.72-30.72 30.72zM215.8592 199.68h-61.44c-16.7936 0-30.72-13.9264-30.72-30.72s13.9264-30.72 30.72-30.72h61.44c16.7936 0 30.72 13.9264 30.72 30.72s-13.9264 30.72-30.72 30.72z"  horiz-adv-x="1024" />

    
    <glyph glyph-name="zaixiankefu" unicode="&#58994;" d="M799.5392 223.8464c-6.5536 0-12.6976-4.096-14.7456-10.24-37.6832-103.6288-134.3488-178.5856-249.4464-184.7296-8.192-0.4096-15.1552-6.9632-15.1552-15.1552 0-9.0112 7.3728-15.9744 16.384-15.5648 128.2048 6.5536 235.52 90.112 277.2992 205.6192 3.6864 9.4208-3.6864 20.0704-14.336 20.0704zM674.2016 285.696c1.6384 12.288-7.7824 23.3472-20.48 23.3472-10.24 0-18.8416-7.3728-20.0704-17.2032-8.6016-59.8016-59.8016-105.6768-121.6512-105.6768s-113.0496 45.8752-121.6512 105.2672c-1.6384 10.24-10.24 17.6128-20.48 17.6128-12.288 0-21.7088-11.0592-20.0704-22.9376 11.0592-79.4624 79.4624-140.9024 162.2016-140.9024 82.7392 0 150.7328 61.44 162.2016 140.4928zM860.5696 503.6032c-2.8672 0-5.3248 0-8.192-0.4096-33.1776 157.696-172.8512 276.0704-340.3776 276.0704-167.5264 0-307.2-118.3744-340.3776-275.6608-2.4576 0-4.9152 0.4096-7.3728 0.4096-56.5248 0-102.4-45.8752-102.4-102.4s45.8752-102.4 102.4-102.4c15.5648 0 29.9008 3.2768 43.008 9.4208 0 0 0.4096 0 0.4096 0.4096 0.8192 0.4096 1.6384 0.8192 2.048 0.8192 9.4208 4.9152 15.5648 14.7456 15.5648 26.2144v95.4368c0 157.696 129.024 286.3104 286.3104 286.3104 157.696 0 286.3104-129.024 286.3104-286.3104v-95.0272c0-13.1072 8.6016-24.576 20.0704-28.672 12.6976-5.7344 27.0336-9.0112 41.7792-9.0112 56.5248 0 102.4 45.8752 102.4 102.4 0.8192 56.5248-45.056 102.4-101.5808 102.4z m-737.28-102.4c0 22.528 18.432 40.96 40.96 40.96h0.4096c0-3.6864-0.4096-7.3728-0.4096-10.6496v-71.2704c-22.528 0-40.96 18.432-40.96 40.96z m737.28-40.96h-0.8192v70.8608c0 3.6864 0 7.3728-0.4096 10.6496h0.8192c22.528 0 40.96-18.432 40.96-40.96 0.4096-22.1184-18.0224-40.5504-40.5504-40.5504z"  horiz-adv-x="1024" />

    
    <glyph glyph-name="gonggao" unicode="&#58995;" d="M572.2112 746.9056L238.3872 546.6112H122.88c-33.9968 0-61.44-27.8528-61.44-61.44v-204.8c0-33.9968 27.8528-61.44 61.44-61.44h115.0976l328.9088-197.4272c35.2256-21.2992 80.6912 4.096 80.6912 45.4656V704.3072c0.4096 38.5024-42.1888 62.6688-75.3664 42.5984z m14.336-665.1904l-317.44 190.0544c-9.4208 5.7344-20.0704 8.6016-30.72 8.6016H122.88v204.8h114.688c11.4688 0 22.528 3.2768 31.9488 9.0112l317.0304 192.1024v-604.5696zM758.9888 526.1312c-13.1072 13.5168-35.2256 12.288-46.6944-3.2768-9.0112-12.288-7.7824-29.0816 2.8672-40.1408 24.576-25.8048 39.7312-60.6208 39.7312-98.7136 0-38.5024-15.1552-73.3184-39.7312-99.1232-10.24-10.6496-11.4688-27.4432-2.8672-39.3216l0.8192-1.2288c11.0592-15.1552 32.768-16.384 45.4656-2.8672 35.6352 36.864 57.7536 87.2448 57.7536 142.5408 0 55.296-21.7088 105.2672-57.344 142.1312zM836.8128 642.048c-13.1072 10.24-32.3584 7.7824-42.1888-5.7344-10.24-13.9264-7.3728-33.1776 6.144-43.8272 61.0304-49.152 100.352-124.1088 100.352-208.4864 0-84.3776-39.3216-159.744-100.7616-208.4864-13.1072-10.24-15.5648-29.0816-5.7344-42.5984 10.24-13.9264 29.9008-16.7936 43.4176-6.144C913.408 186.5728 962.56 279.552 962.56 384c0 104.8576-49.152 197.8368-125.7472 258.048z"  horiz-adv-x="1024" />

    
    <glyph glyph-name="chongzhitikuan-w" unicode="&#58996;" d="M872.8576 411.92106666c-5.3248-3.6864-8.192-9.4208-8.192-15.9744v-167.936c-62.6688-20.48-108.9536-77.824-111.8208-146.6368H271.5648c-2.8672 68.8128-49.152 126.5664-112.2304 146.6368v225.6896c60.6208 22.528 104.0384 79.872 105.6768 147.456h269.5168c10.24 0 18.432 8.192 18.0224 18.432 0 11.4688-9.4208 20.8896-20.8896 20.8896H198.656C155.648 640.47786666 120.0128 605.25226666 120.0128 561.83466666v-441.5488c0-43.008 35.2256-78.6432 78.6432-78.6432h626.688c43.008 0 78.6432 35.2256 78.6432 78.6432v275.2512c-0.4096 16.384-18.432 25.8048-31.1296 16.384zM159.3344 562.65386666c0 21.7088 17.6128 39.3216 39.3216 39.3216h27.0336c-1.6384-45.8752-27.8528-85.1968-66.3552-104.8576v65.536z m39.3216-480.8704c-21.7088 0-39.3216 17.6128-39.3216 39.3216v65.536c40.96-18.0224 69.632-57.7536 72.4992-104.8576h-33.1776z m666.0096 39.3216c0-21.7088-17.6128-39.3216-39.3216-39.3216h-33.1776c2.8672 46.6944 31.5392 86.4256 72.4992 104.8576v-65.536zM735.232 617.54026666c33.5872-7.7824 101.5808-37.2736 111.4112-147.456l2.8672-29.4912 15.5648 25.3952c0.8192 1.2288 72.9088 122.0608-2.4576 221.184-24.576 32.3584-57.7536 48.3328-99.1232 48.3328-35.6352 0-67.584-12.6976-82.3296-19.2512l-53.6576 86.4256-49.5616-233.8816 208.4864-43.4176-51.2 92.16z m-98.7136 133.12l37.2736-60.6208 8.192 4.5056c0.4096 0.4096 38.5024 21.2992 81.1008 21.2992 34.816 0 62.6688-13.5168 83.5584-40.96 46.6944-61.0304 29.9008-132.3008 14.7456-170.8032-28.2624 129.8432-142.5408 135.5776-143.7696 135.5776l-17.2032 0.8192L748.3392 553.64266666l-147.0464 30.72 35.2256 166.2976zM448.1024 475.40906666c-2.4576 4.096-7.3728 5.3248-11.4688 3.2768l-8.6016-4.9152c-4.096-2.4576-5.3248-7.3728-3.2768-11.4688l54.4768-94.6176h-44.2368c-4.5056 0-8.6016-3.6864-8.6016-8.6016v-10.24c0-4.5056 3.6864-8.6016 8.6016-8.6016h59.8016v-41.3696h-59.8016c-4.5056 0-8.6016-3.6864-8.6016-8.6016v-10.24c0-4.5056 3.6864-8.6016 8.6016-8.6016h59.8016v-59.8016c0-4.5056 3.6864-8.6016 8.6016-8.6016h10.24c4.5056 0 8.6016 3.6864 8.6016 8.6016v59.8016h59.8016c4.5056 0 8.6016 3.6864 8.6016 8.6016v10.24c0 4.5056-3.6864 8.6016-8.6016 8.6016h-59.8016v41.3696h59.8016c4.5056 0 8.6016 3.6864 8.6016 8.6016v10.24c0 4.5056-3.6864 8.6016-8.6016 8.6016h-43.8272l54.4768 94.6176c2.4576 4.096 0.8192 9.4208-3.2768 11.4688l-8.6016 4.9152c-4.096 2.4576-9.4208 0.8192-11.4688-3.2768l-60.6208-104.8576-60.6208 104.8576z"  horiz-adv-x="1024" />

    
    <glyph glyph-name="home-w" unicode="&#58997;" d="M512 783.36L72.9088 344.2688l27.4432-27.4432L512 728.064l411.648-411.2384 27.4432 27.4432zM794.624 15.36h-157.2864v235.1104H402.6368V15.36H245.3504v333.824h-39.3216v-372.736h235.9296v234.7008H598.016v-234.7008h235.9296v372.736H794.624zM795.0336 526.1312h39.3216V683.008h-176.5376v-39.3216h137.216z"  horiz-adv-x="1024" />

    
    <glyph glyph-name="kaijiangjilu-w" unicode="&#58998;" d="M512 772.3008c-216.6784 0-392.3968-175.7184-392.3968-392.3968s175.7184-392.3968 392.3968-392.3968 392.3968 175.7184 392.3968 392.3968-175.7184 392.3968-392.3968 392.3968z m0-745.472c-194.56 0-353.0752 158.5152-353.0752 353.0752S317.44 732.9792 512 732.9792s353.0752-158.5152 353.0752-353.0752-158.5152-353.0752-353.0752-353.0752zM505.856 374.1696l-242.0736-168.3456 22.528-32.3584 258.8672 180.224V676.864h-39.3216z"  horiz-adv-x="1024" />

    
    <glyph glyph-name="tixianjilu-w" unicode="&#58999;" d="M567.296 593.7152c-8.6016 0-15.5648-6.9632-15.5648-15.5648s6.9632-15.5648 15.5648-15.5648h101.1712c8.6016 0 15.5648 6.9632 15.5648 15.5648s-6.9632 15.5648-15.5648 15.5648h-101.1712zM373.9648 245.5552H278.1184c-8.6016 0-15.5648-6.9632-15.5648-15.5648 0-8.6016 6.9632-15.5648 15.5648-15.5648h95.8464c8.6016 0 15.5648 6.9632 15.5648 15.5648 0 8.6016-6.9632 15.5648-15.5648 15.5648zM466.944 637.1328l-10.24 5.7344c-4.5056 2.8672-10.6496 1.2288-13.5168-3.6864l-69.632-120.832-70.0416 121.2416c-2.8672 4.5056-8.6016 6.144-13.5168 3.6864l-10.24-5.7344c-4.5056-2.8672-6.144-8.6016-3.6864-13.5168l63.0784-109.3632H288.3584c-5.3248 0-9.8304-4.5056-9.8304-9.8304v-11.4688c0-5.3248 4.5056-9.8304 9.8304-9.8304h69.2224v-47.9232H288.3584c-5.3248 0-9.8304-4.5056-9.8304-9.8304v-11.4688c0-5.3248 4.5056-9.8304 9.8304-9.8304h69.2224v-69.632c0-5.3248 4.5056-9.8304 9.8304-9.8304h11.4688c5.3248 0 9.8304 4.5056 9.8304 9.8304v69.2224h69.2224c5.3248 0 9.8304 4.5056 9.8304 9.8304v11.4688c0 5.3248-4.5056 9.8304-9.8304 9.8304H389.12v47.9232h69.2224c5.3248 0 9.8304 4.5056 9.8304 9.8304v11.4688c0 5.3248-4.5056 9.8304-9.8304 9.8304H407.552l63.0784 109.3632c2.8672 4.9152 1.2288 11.0592-3.6864 13.5168zM431.7184 78.4384H198.656c-21.7088 0-39.3216 17.6128-39.3216 39.3216V705.1264c0 21.7088 17.6128 39.3216 39.3216 39.3216h532.0704c21.7088 0 39.3216-17.6128 39.3216-39.3216v-236.7488c0-10.6496 8.6016-19.6608 19.6608-19.6608 10.6496 0 19.6608 8.6016 19.6608 19.6608V705.1264c0 43.008-35.2256 78.6432-78.6432 78.6432H198.656C155.648 783.7696 120.4224 748.544 120.4224 705.1264v-587.776c0-43.008 35.2256-78.6432 78.6432-78.6432h233.0624c11.0592 0 19.6608 8.6016 19.6608 19.6608-0.4096 11.0592-9.4208 20.0704-20.0704 20.0704zM750.3872 422.912c-158.1056 52.0192-305.9712-66.3552-305.9712-217.088 0-93.3888 55.296-180.224 142.5408-213.4016 80.2816-30.72 158.5152-16.384 217.4976 24.1664 7.3728 4.9152 8.6016 15.1552 2.8672 21.7088l-0.8192 0.8192c-4.9152 5.3248-12.6976 5.7344-18.432 1.6384-32.3584-22.528-71.2704-35.6352-113.8688-35.6352-122.88 0-220.3648 111.4112-196.608 238.3872 14.7456 79.872 79.0528 143.7696 158.5152 158.5152 126.976 23.3472 238.3872-73.728 238.3872-196.608 0-32.768-8.192-63.8976-22.1184-91.3408-2.8672-5.7344-2.4576-12.6976 2.048-17.6128 0 0 12.6976-16.384 20.48-2.4576 18.8416 33.1776 29.0816 70.4512 29.0816 111.8208-0.4096 97.4848-61.0304 186.7776-153.6 217.088zM784.7936 247.6032c0 1.2288-0.4096 2.048-0.8192 3.2768-0.4096 0.8192-0.8192 1.6384-1.2288 2.8672-0.4096 0.8192-0.4096 1.2288-0.8192 2.048l-59.8016 74.5472c-5.3248 6.5536-15.1552 7.7824-22.1184 2.4576s-7.7824-15.1552-2.4576-22.1184l39.3216-49.152h-158.1056c-8.6016 0-15.5648-6.9632-15.5648-15.5648s6.9632-15.5648 15.5648-15.5648h190.8736c0.8192 0 1.2288 0.4096 2.048 0.4096 1.2288 0 2.048 0.4096 3.2768 0.8192l2.4576 1.2288c0.8192 0.4096 1.6384 0.4096 2.048 1.2288l0.8192 0.8192c0.8192 0.8192 1.2288 1.2288 1.6384 2.048 0.8192 0.8192 1.2288 1.6384 1.6384 2.8672 0.4096 0.8192 0.4096 1.6384 0.8192 2.4576 0.4096 1.2288 0.4096 2.048 0.8192 3.2768v0.8192s-0.4096 0.4096-0.4096 1.2288zM785.2032 166.5024c0 8.6016-6.9632 15.5648-15.5648 15.5648h-190.8736c-0.8192 0-1.2288-0.4096-2.048-0.4096-1.2288 0-2.048-0.4096-3.2768-0.8192l-2.4576-1.2288c-0.8192-0.4096-1.6384-0.4096-2.048-1.2288l-0.8192-0.8192c-0.8192-0.8192-1.2288-1.2288-1.6384-2.048-0.8192-0.8192-1.2288-1.6384-1.6384-2.8672-0.4096-0.8192-0.4096-1.6384-0.8192-2.4576-0.4096-1.2288-0.4096-2.048-0.8192-3.2768v-0.8192c0-0.8192 0.4096-1.2288 0.4096-2.048 0-1.2288 0.4096-2.048 0.8192-3.2768 0.4096-0.8192 0.8192-1.6384 1.2288-2.8672 0.4096-0.8192 0.4096-1.2288 0.8192-2.048l59.8016-74.5472c5.3248-6.5536 15.1552-7.7824 22.1184-2.4576 6.5536 5.3248 7.7824 15.1552 2.4576 22.1184l-39.3216 49.152h158.1056c8.192 0.8192 15.5648 7.7824 15.5648 16.384z"  horiz-adv-x="1024" />

    
    <glyph glyph-name="goucaidating-w" unicode="&#59000;" d="M562.7904 391.7824v1.2288c61.8496 29.9008 92.5696 72.0896 92.5696 127.3856 0 33.9968-12.6976 62.2592-38.5024 83.5584-25.8048 21.7088-58.1632 32.3584-97.8944 32.3584-43.008 0-78.6432-11.4688-106.496-34.4064-27.4432-22.9376-41.3696-52.4288-41.3696-89.2928 0-52.4288 29.4912-92.16 88.8832-120.0128v-1.2288c-70.8608-28.672-106.496-74.9568-106.496-138.0352 0-38.5024 13.9264-69.632 41.3696-93.7984 27.4432-24.1664 63.0784-36.0448 106.9056-36.0448 53.248 0 95.0272 12.288 124.928 36.864 29.9008 24.576 44.6464 57.344 44.6464 98.7136 0 62.2592-36.0448 106.9056-108.544 132.7104z m-128.2048 122.0608c0 20.8896 7.7824 37.6832 23.3472 51.2 15.5648 13.5168 34.4064 20.0704 56.9344 20.0704 23.7568 0 42.5984-6.5536 56.5248-19.2512 13.9264-12.6976 20.8896-30.3104 20.8896-52.4288 0-40.5504-26.624-72.0896-79.4624-93.7984-52.4288 21.2992-78.2336 52.8384-78.2336 94.208z m147.456-316.2112c-17.6128-15.1552-40.1408-22.9376-68.4032-22.9376-28.672 0-52.4288 7.7824-70.0416 22.9376-18.0224 15.5648-27.0336 35.2256-27.0336 58.9824 0 46.2848 30.72 81.5104 92.16 106.496 66.3552-24.1664 99.5328-60.2112 99.5328-108.544 0-22.528-8.6016-41.7792-26.2144-56.9344zM512 772.3008c-216.6784 0-392.3968-175.7184-392.3968-392.3968s175.7184-392.3968 392.3968-392.3968 392.3968 175.7184 392.3968 392.3968-175.7184 392.3968-392.3968 392.3968z m0-745.472c-194.56 0-353.0752 158.5152-353.0752 353.0752S317.44 732.9792 512 732.9792s353.0752-158.5152 353.0752-353.0752-158.5152-353.0752-353.0752-353.0752z"  horiz-adv-x="1024" />

    
    <glyph glyph-name="huiyuanzhongxin-w" unicode="&#59001;" d="M511.5904 350.4128c22.9376 0 45.4656-2.048 67.1744-5.3248 8.192-1.2288 16.384 2.048 20.8896 9.0112 5.7344 8.6016 3.2768 19.6608-4.096 25.8048 70.0416 34.4064 117.9648 106.496 117.9648 189.6448 0 116.736-94.6176 211.3536-211.3536 211.3536S290.816 685.8752 290.816 569.1392c0-83.968 49.152-156.4672 120.0128-190.464-174.4896-37.2736-303.9232-168.3456-303.9232-324.8128v-57.344c1.2288-11.0592 5.7344-17.2032 20.48-17.2032 12.288 0 18.432 2.8672 19.6608 15.9744 0 0-0.8192 40.1408-0.8192 58.5728 0 163.4304 163.84 296.5504 365.3632 296.5504zM330.1376 569.1392c0 95.0272 77.4144 172.4416 172.4416 172.4416s172.4416-77.4144 172.4416-172.4416-77.4144-172.4416-172.4416-172.4416S330.1376 474.112 330.1376 569.1392zM894.1568 206.6432c-5.7344 2.8672-11.4688 4.096-16.7936 4.096-23.7568 0-41.3696-23.7568-49.9712-34.816 0 0-15.5648-18.8416-30.3104-18.8416-1.6384 0-3.2768 0.4096-4.5056 0.8192 0 0-11.0592 5.3248-15.9744 18.0224-4.9152 12.6976-60.6208 138.8544-60.6208 138.8544s-17.2032 43.008-45.8752 43.008c-28.672 0-45.8752-43.008-45.8752-43.008s-55.7056-126.1568-60.6208-138.8544c-4.9152-12.6976-15.9744-18.0224-15.9744-18.0224-1.6384-0.4096-3.2768-0.8192-4.5056-0.8192-14.7456 0-30.3104 18.8416-30.3104 18.8416-8.6016 11.0592-26.2144 34.816-49.9712 34.816-5.3248 0-11.0592-1.2288-16.7936-4.096-31.9488-15.1552-20.8896-49.152-20.8896-49.152l38.912-156.8768c0.4096-1.6384 1.2288-2.8672 2.048-4.096 1.2288-9.8304 9.0112-17.6128 19.2512-17.6128h369.8688c9.0112 0 16.384 6.5536 18.8416 14.7456 0.4096 0.4096 0.8192 1.2288 1.2288 1.6384l40.1408 161.792c-0.4096 0.8192 10.6496 34.4064-21.2992 49.5616z m-16.384-37.2736l-0.4096-2.4576-32.768-132.3008c-0.8192-3.2768-3.6864-5.3248-6.9632-5.3248h-333.4144c-3.2768 0-6.144 2.4576-6.9632 5.3248l-32.768 132.3008s-0.8192 3.2768-0.8192 4.096h0.4096c2.8672-1.2288 8.6016-5.7344 18.432-19.2512l0.4096-0.8192 0.4096-0.8192c6.5536-7.7824 29.4912-33.1776 60.6208-33.1776 5.7344 0 11.0592 0.8192 16.384 2.4576l2.8672 0.8192 2.8672 1.2288c4.096 2.048 24.9856 13.5168 35.2256 38.912 3.2768 8.6016 38.5024 88.8832 60.2112 137.216l0.4096 0.8192 0.4096 0.8192c1.6384 4.096 5.7344 11.0592 9.4208 15.1552 3.2768-4.096 6.9632-10.24 9.4208-15.1552l0.4096-0.8192 0.4096-0.8192c21.2992-48.3328 56.5248-128.6144 60.2112-137.216 9.8304-25.3952 30.72-36.864 35.2256-38.912l2.8672-1.2288 2.8672-0.8192c5.3248-1.6384 10.6496-2.4576 16.384-2.4576 30.72 0 54.0672 25.3952 60.6208 33.1776l0.4096 0.8192 0.4096 0.8192c11.0592 14.7456 16.7936 18.8416 18.432 19.2512 0 0 0.4096 0 0.4096-0.4096-2.048 0-2.048-0.4096-2.048-1.2288z"  horiz-adv-x="1024" />

    


  </font>
</defs>
</svg>
